<?xml version="1.0" encoding="utf-8"?>
<!-- Generator: Adobe Illustrator 27.3.1, SVG Export Plug-In . SVG Version: 6.00 Build 0)  -->
<svg version="1.1" id="Layer_1" xmlns="http://www.w3.org/2000/svg" xmlns:xlink="http://www.w3.org/1999/xlink" x="0px" y="0px"
	 viewBox="0 0 32 32" style="enable-background:new 0 0 32 32;" xml:space="preserve">
<style type="text/css">
	.st0{fill:#1E4D2B;}
</style>
<path class="st0" d="M17.7,16.7l-10,10c-0.4,0.4-1,0.4-1.4,0s-0.4-1,0-1.4l9.3-9.3L6.3,6.7c-0.4-0.4-0.4-1,0-1.4s1-0.4,1.4,0l10,10
	C18.1,15.7,18.1,16.3,17.7,16.7C17.7,16.7,17.7,16.7,17.7,16.7z M27.7,15.3l-10-10c-0.4-0.4-1-0.4-1.4,0s-0.4,1,0,1.4l0,0l9.3,9.3
	l-9.3,9.3c-0.4,0.4-0.4,1,0,1.4s1,0.4,1.4,0l10-10C28.1,16.3,28.1,15.7,27.7,15.3C27.7,15.3,27.7,15.3,27.7,15.3z"/>
</svg>
