<svg xmlns="http://www.w3.org/2000/svg" viewBox="0 0 547.92 64.39"><defs><style>.cls-1{fill:#c8c373;stroke:#c8c373;stroke-width:2.71px;}.cls-1,.cls-2,.cls-4{stroke-miterlimit:10;}.cls-2,.cls-5{fill:#1e4d2b;}.cls-2{stroke:#1e4d2b;stroke-width:1.21px;}.cls-3{fill:#fff;}.cls-4{fill:none;stroke:#fff;stroke-width:0.48px;}</style></defs><title>Asset 1</title><g id="Layer_2" data-name="Layer 2"><g id="Layer_1-2" data-name="Layer 1"><g id="_Group_" data-name="&lt;Group&gt;"><g id="_Group_2" data-name="&lt;Group&gt;"><path id="_Compound_Path_" data-name="&lt;Compound Path&gt;" class="cls-1" d="M32.21,63A30.84,30.84,0,1,1,63,32.18,30.89,30.89,0,0,1,32.21,63Zm0-60.52A29.68,29.68,0,1,0,61.87,32.18,29.71,29.71,0,0,0,32.21,2.52Z"/><path id="_Path_" data-name="&lt;Path&gt;" class="cls-2" d="M32.21,1.94A30.26,30.26,0,1,0,62.45,32.18,30.31,30.31,0,0,0,32.21,1.94Z"/><path id="_Compound_Path_2" data-name="&lt;Compound Path&gt;" class="cls-3" d="M32.2,3A29.19,29.19,0,1,0,61.37,32.2,29.23,29.23,0,0,0,32.2,3ZM50.5,52.4a3.35,3.35,0,0,1-2.72.08,2.32,2.32,0,0,1-1.28-1.81,5.83,5.83,0,0,1,1-3.47,19.45,19.45,0,0,1,4.64-5.12c2.93-2.18,5-2.78,4.21-3.28-.53-.36-3.3,1.17-3.85,1.46-3.12,1.61-7.42,6.26-7.93,9.7-.39,2.71,2.72,4.65,4.85,3.92a26.76,26.76,0,0,1-17.25,6.17h0a26.74,26.74,0,0,1-17.27-6.17c2.13.73,5.25-1.21,4.85-3.92-.51-3.44-4.83-8.09-7.92-9.7C11.3,40,8.52,38.44,8,38.8c-.76.5,1.28,1.1,4.21,3.28a19.32,19.32,0,0,1,4.62,5.12,5.64,5.64,0,0,1,1.07,3.47,2.37,2.37,0,0,1-1.28,1.81,3.4,3.4,0,0,1-2.74-.08,7.84,7.84,0,0,1-3.48-2.9,28.47,28.47,0,0,1-4.53-8.36c.78,1.73,5.71,9,7.9,9.07s-2.19-5.88-5.24-8.38a4,4,0,0,1-1.75-2.45A1.09,1.09,0,0,1,7.86,38c1.23-.05,4.41,1.6,4.45,1.54-5.52-9.91,2.93-14.91-.57-17.08-1.22-.78-3.81,0-5.23.21,13-7.68,15.28,0,19.2,3.5.61.56,3.37,0,3.89-.65.7-.83,2.09-3.84.51-5.82C27.84,16.82,18.4,8.32,9.8,15.83,14,9.08,23.7,4.1,32.22,4.34,40.73,4.1,50.4,9.08,54.59,15.83c-8.62-7.51-18,1-20.33,3.86-1.56,2-.19,5,.51,5.82.54.65,3.3,1.21,3.91.65,3.92-3.53,6.2-11.18,19.19-3.5-1.41-.21-4-1-5.22-.21-3.5,2.17,4.93,7.17-.57,17.08.05.06,3.23-1.59,4.45-1.54a1.09,1.09,0,0,1,1.09,1.39,4.17,4.17,0,0,1-1.75,2.45c-3,2.5-7.49,8.5-5.26,8.38s7.14-7.34,7.92-9.07A28.94,28.94,0,0,1,54,49.5,7.73,7.73,0,0,1,50.5,52.4ZM35.41,49.11a31.61,31.61,0,0,1-3.16.34,31.61,31.61,0,0,1-3.16-.34.37.37,0,0,0-.29.11c-.62,1.31,2.93,2,3.44,2s4.08-.71,3.46-2A.37.37,0,0,0,35.41,49.11ZM32.26,37.56h0c-1,0-1.54.86-2.46,1.83-1.61,1.75-4.9,6.11-2.51,8.18a4.37,4.37,0,0,0,4.39,1c.48-.34.2-1.32-.05-1.76-.89-1.16-2.29-.7-2.69-1.29A1,1,0,0,1,29,44.19c.33-.42.87-.31,1.33-.19a3.71,3.71,0,0,1,1.88,1v0h0v0a3.59,3.59,0,0,1,1.88-1c.44-.12,1-.23,1.31.19a1,1,0,0,1,.11,1.29c-.4.59-1.78.13-2.67,1.29-.25.44-.55,1.42-.07,1.76a4.33,4.33,0,0,0,4.38-1c2.42-2.07-.87-6.43-2.5-8.18C33.8,38.42,33.23,37.58,32.26,37.56ZM52.74,30.4c-.14-1.21-1.21-1.58-2.14-1.88-2.72-.85-3.86.21-4.66.3.86-1,.65-2.61-.47-2.8-2.11-.33-1.53,1.94-1,3,.34.67.75,1.78,1.8,1.69,1.27-.1,1.08-1.14,2.92-1.29,0,0,2.29.17,2.25.9-.08,1.08-1.27,1.48-2,1.75-1.15.37-2.47-.19-3.41.88a1.4,1.4,0,0,0-.41,1.18c.1.4.15.23,1.42.34a5.81,5.81,0,0,0-1.15,3.38c0,3.15-.84,5.59-.52,6.67,1.52-1.83,1.5-4.61,1.75-6.82a7.81,7.81,0,0,1,1.13-3.25c.64-1,1.87-1,2.69-1.63S52.85,31.3,52.74,30.4ZM19.2,26c-1.1.19-1.31,1.82-.48,2.8-.77-.09-1.92-1.15-4.63-.3-.94.3-2,.67-2.15,1.88-.1.9,1.11,1.86,1.88,2.42s2,.65,2.69,1.63a8.41,8.41,0,0,1,1.13,3.25c.25,2.21.21,5,1.75,6.82.29-1.08-.5-3.52-.52-6.67a6,6,0,0,0-1.15-3.38c1.27-.11,1.29.06,1.4-.34A1.38,1.38,0,0,0,18.7,33c-.92-1.07-2.23-.51-3.4-.88-.77-.27-2-.67-2-1.75,0-.73,2.25-.9,2.25-.9,1.84.15,1.63,1.19,2.9,1.29,1,.09,1.48-1,1.82-1.69C20.75,28,21.33,25.69,19.2,26Zm8.14,13.43c.85-1.31,1.75-4.17,1.23-5.38a5.36,5.36,0,0,1-2.44-1.9c-.61-.87-1-1.85-2-2.14a2.64,2.64,0,0,0-2.09.2c-.94.55-1.17,1.84-1.31,2.86A17.87,17.87,0,0,0,22,40.27a31.73,31.73,0,0,0,3.35,6.15C24.88,42.81,26.88,40.43,27.34,39.45ZM24.58,34.8c-.41-.73-1.48-.58-2-.87a1.46,1.46,0,0,1,0-2.34c1-.9,3.53,2,3,4.23C25.29,35.91,25.17,35.76,24.58,34.8Zm17.78-4.57a2.65,2.65,0,0,0-2.09-.2c-1.06.29-1.4,1.27-2,2.14a5.33,5.33,0,0,1-2.43,1.9c-.53,1.21.37,4.07,1.23,5.38.48,1,2.46,3.36,2,7a31.06,31.06,0,0,0,3.34-6.15,17.7,17.7,0,0,0,1.25-7.18C43.54,32.07,43.3,30.78,42.36,30.23Zm-.59,3.7c-.48.29-1.54.14-2,.87-.58,1-.71,1.11-1,1-.56-2.25,2-5.13,3-4.23A1.44,1.44,0,0,1,41.77,33.93Z"/></g><g id="_Group_3" data-name="&lt;Group&gt;"><path id="_Path_2" data-name="&lt;Path&gt;" class="cls-4" d="M49.47,53.88a26.76,26.76,0,0,1-17.25,6.17h0a26.74,26.74,0,0,1-17.27-6.17"/><path id="_Path_3" data-name="&lt;Path&gt;" class="cls-4" d="M9.8,15.83C14,9.08,23.7,4.1,32.22,4.34,40.73,4.1,50.4,9.08,54.59,15.83"/></g></g><g id="_Group_4" data-name="&lt;Group&gt;"><g id="_Group_5" data-name="&lt;Group&gt;"><g id="_Group_6" data-name="&lt;Group&gt;"><path class="cls-5" d="M79.1,42c-2.9,0-4.47-1.41-4.47-4V25.32c0-2.62,1.57-4,4.47-4h7.16c2.91,0,4.48,1.41,4.48,4v2.9H86.9v-2.7c0-.69-.41-1.06-1.21-1.06h-6c-.77,0-1.18.37-1.18,1.06V37.76c0,.69.41,1.06,1.18,1.06h6c.8,0,1.21-.37,1.21-1.06v-2.7h3.84V38c0,2.62-1.57,4-4.48,4Z"/><path class="cls-5" d="M86.26,42.44H79.1c-3.17,0-4.92-1.59-4.92-4.48V25.32c0-2.89,1.75-4.48,4.92-4.48h7.16c3.18,0,4.93,1.59,4.93,4.48v3.35H86.45V25.52c0-.3-.06-.61-.76-.61h-6c-.64,0-.73.29-.73.61V37.76c0,.32.09.61.73.61h6c.7,0,.76-.32.76-.61V34.61h4.74V38C91.19,40.85,89.44,42.44,86.26,42.44ZM79.1,21.75c-2.66,0-4,1.2-4,3.57V38c0,2.37,1.36,3.57,4,3.57h7.16c2.67,0,4-1.2,4-3.57V35.51H87.36v2.25a1.47,1.47,0,0,1-1.67,1.52h-6A1.47,1.47,0,0,1,78,37.76V25.52A1.45,1.45,0,0,1,79.65,24h6a1.47,1.47,0,0,1,1.67,1.52v2.25h2.93V25.32c0-2.37-1.36-3.57-4-3.57Z"/></g><g id="_Group_7" data-name="&lt;Group&gt;"><path class="cls-5" d="M100.7,42c-2.91,0-4.48-1.41-4.48-4V25.32c0-2.62,1.57-4,4.48-4h7.57c2.91,0,4.48,1.41,4.48,4V38c0,2.62-1.57,4-4.48,4Zm-.64-4.23c0,.69.41,1.06,1.18,1.06h6.46c.8,0,1.21-.37,1.21-1.06V25.52c0-.69-.41-1.06-1.21-1.06h-6.46c-.77,0-1.18.37-1.18,1.06Z"/><path class="cls-5" d="M108.27,42.44H100.7c-3.18,0-4.93-1.59-4.93-4.48V25.32c0-2.89,1.75-4.48,4.93-4.48h7.57c3.18,0,4.93,1.59,4.93,4.48V38C113.2,40.85,111.45,42.44,108.27,42.44ZM100.7,21.75c-2.67,0-4,1.2-4,3.57V38c0,2.37,1.35,3.57,4,3.57h7.57c2.67,0,4-1.2,4-3.57V25.32c0-2.37-1.35-3.57-4-3.57Zm7,17.53h-6.46a1.47,1.47,0,0,1-1.64-1.52V25.52A1.46,1.46,0,0,1,101.24,24h6.46a1.47,1.47,0,0,1,1.67,1.52V37.76A1.47,1.47,0,0,1,107.7,39.28Zm-6.46-14.37c-.64,0-.73.29-.73.61V37.76c0,.32.09.61.73.61h6.46c.7,0,.76-.32.76-.61V25.52c0-.3-.06-.61-.76-.61Z"/></g><g id="_Group_8" data-name="&lt;Group&gt;"><path class="cls-5" d="M122.1,21.29V38.82h10.1V42H118.26V21.29Z"/><path class="cls-5" d="M132.65,42.44H117.81V20.84h4.74V38.37h10.1Zm-13.93-.91h13V39.28h-10.1V21.75h-2.92Z"/></g><g id="_Group_9" data-name="&lt;Group&gt;"><path class="cls-5" d="M141.26,42c-2.9,0-4.47-1.41-4.47-4V25.32c0-2.62,1.57-4,4.47-4h7.58c2.91,0,4.47,1.41,4.47,4V38c0,2.62-1.56,4-4.47,4Zm-.63-4.23c0,.69.41,1.06,1.18,1.06h6.45c.8,0,1.22-.37,1.22-1.06V25.52c0-.69-.42-1.06-1.22-1.06h-6.45c-.77,0-1.18.37-1.18,1.06Z"/><path class="cls-5" d="M148.84,42.44h-7.58c-3.17,0-4.92-1.59-4.92-4.48V25.32c0-2.89,1.75-4.48,4.92-4.48h7.58c3.18,0,4.93,1.59,4.93,4.48V38C153.77,40.85,152,42.44,148.84,42.44Zm-7.58-20.69c-2.66,0-4,1.2-4,3.57V38c0,2.37,1.36,3.57,4,3.57h7.58c2.67,0,4-1.2,4-3.57V25.32c0-2.37-1.35-3.57-4-3.57Zm7,17.53h-6.45a1.47,1.47,0,0,1-1.64-1.52V25.52A1.45,1.45,0,0,1,141.81,24h6.45a1.47,1.47,0,0,1,1.67,1.52V37.76A1.47,1.47,0,0,1,148.26,39.28Zm-6.45-14.37c-.64,0-.73.29-.73.61V37.76c0,.32.09.61.73.61h6.45c.71,0,.77-.32.77-.61V25.52c0-.3-.06-.61-.77-.61Z"/></g><g id="_Group_10" data-name="&lt;Group&gt;"><path class="cls-5" d="M171.33,42l-4.13-8h-4.53v8h-3.84V21.29H170.3c2.91,0,4.48,1.41,4.48,4V30a3.66,3.66,0,0,1-3.48,4L175.48,42Zm-1.57-11.07c.77,0,1.18-.37,1.18-1.06V25.49c0-.69-.41-1.06-1.18-1.06h-7.09v6.49Z"/><path class="cls-5" d="M176.23,42.44h-5.18l-4.12-8h-3.81v8h-4.74V20.84H170.3c3.18,0,4.93,1.59,4.93,4.48V30a4,4,0,0,1-3.25,4.3Zm-4.63-.91h3.14l-4.14-8,.63-.09a3.21,3.21,0,0,0,3.1-3.52V25.32c0-2.37-1.36-3.57-4-3.57h-11V41.53h2.93v-8h5.27Zm-1.84-10.15h-7.55V24h7.55a1.47,1.47,0,0,1,1.64,1.52v4.37A1.47,1.47,0,0,1,169.76,31.38Zm-6.64-.91h6.64c.64,0,.73-.3.73-.61V25.49c0-.32-.09-.61-.73-.61h-6.64Z"/></g><g id="_Group_11" data-name="&lt;Group&gt;"><path class="cls-5" d="M185.6,36.87,183.87,42h-4l7.6-20.7H192L199.66,42h-4.22l-1.72-5.12Zm4.06-12.07-3,8.91h6Z"/><path class="cls-5" d="M200.32,42.44h-5.2l-1.73-5.12h-7.46l-1.73,5.12h-5l7.94-21.6h5.2Zm-4.55-.91H199l-7.3-19.78h-3.94L180.5,41.53h3.05l1.72-5.11h8.78Zm-2.47-7.37H186l3.64-10.78Zm-6-.9H192l-2.37-7Z"/></g><g id="_Group_12" data-name="&lt;Group&gt;"><path class="cls-5" d="M216.18,21.29c2.9,0,4.47,1.41,4.47,4V38c0,2.62-1.57,4-4.47,4H204.44V21.29Zm-.55,17.53c.77,0,1.18-.37,1.18-1.06V25.52c0-.69-.41-1.06-1.18-1.06h-7.35V38.82Z"/><path class="cls-5" d="M216.18,42.44H204V20.84h12.19c3.17,0,4.92,1.59,4.92,4.48V38C221.1,40.85,219.35,42.44,216.18,42.44Zm-11.28-.91h11.28c2.66,0,4-1.2,4-3.57V25.32c0-2.37-1.36-3.57-4-3.57H204.9Zm10.73-2.25h-7.8V24h7.8a1.45,1.45,0,0,1,1.64,1.52V37.76A1.47,1.47,0,0,1,215.63,39.28Zm-6.9-.91h6.9c.64,0,.73-.29.73-.61V25.52c0-.32-.09-.61-.73-.61h-6.9Z"/></g><g id="_Group_13" data-name="&lt;Group&gt;"><path class="cls-5" d="M230.54,42c-2.9,0-4.47-1.41-4.47-4V25.32c0-2.62,1.57-4,4.47-4h7.58c2.91,0,4.48,1.41,4.48,4V38c0,2.62-1.57,4-4.48,4Zm-.63-4.23c0,.69.41,1.06,1.18,1.06h6.45c.8,0,1.22-.37,1.22-1.06V25.52c0-.69-.42-1.06-1.22-1.06h-6.45c-.77,0-1.18.37-1.18,1.06Z"/><path class="cls-5" d="M238.12,42.44h-7.58c-3.18,0-4.93-1.59-4.93-4.48V25.32c0-2.89,1.75-4.48,4.93-4.48h7.58c3.18,0,4.93,1.59,4.93,4.48V38C243.05,40.85,241.3,42.44,238.12,42.44Zm-7.58-20.69c-2.66,0-4,1.2-4,3.57V38c0,2.37,1.36,3.57,4,3.57h7.58c2.67,0,4-1.2,4-3.57V25.32c0-2.37-1.35-3.57-4-3.57Zm7,17.53h-6.45a1.47,1.47,0,0,1-1.64-1.52V25.52A1.45,1.45,0,0,1,231.09,24h6.45a1.47,1.47,0,0,1,1.67,1.52V37.76A1.47,1.47,0,0,1,237.54,39.28Zm-6.45-14.37c-.64,0-.73.29-.73.61V37.76c0,.32.09.61.73.61h6.45c.67,0,.77-.29.77-.61V25.52c0-.3-.06-.61-.77-.61Z"/></g><g id="_Group_14" data-name="&lt;Group&gt;"><path class="cls-5" d="M267.35,25.46c0-.72-.42-1.09-1.19-1.09h-5.53c-.8,0-1.21.37-1.21,1.09v2.42c0,.91.41,1.2,1.5,1.43l5.94,1.18c2.72.55,4.61,1.41,4.61,4.14V38c0,2.62-1.57,4-4.48,4h-7c-2.9,0-4.47-1.41-4.47-4V35.55h3.77v2.27c0,.72.42,1.09,1.18,1.09h6c.77,0,1.18-.37,1.18-1.09v-2.7c0-.92-.41-1.18-1.5-1.41l-5.94-1.21c-2.69-.54-4.61-1.41-4.61-4.14v-3c0-2.62,1.57-4,4.48-4h6.58c2.91,0,4.48,1.41,4.48,4V27.5h-3.77Z"/><path class="cls-5" d="M267,42.44h-7c-3.18,0-4.93-1.59-4.93-4.48V35.09h4.68v2.73c0,.38.13.64.73.64h6c.6,0,.73-.26.73-.64v-2.7c0-.58-.11-.75-1.14-1L260.1,33c-2.58-.53-5-1.44-5-4.59v-3c0-2.89,1.75-4.48,4.93-4.48h6.58c3.18,0,4.93,1.59,4.93,4.48V28h-4.68v-2.5c0-.38-.12-.64-.73-.64h-5.53c-.7,0-.76.33-.76.64v2.42c0,.56.09.77,1.14,1L267,30.05c2.58.51,5,1.43,5,4.58V38C271.92,40.85,270.17,42.44,267,42.44ZM256,36v2c0,2.37,1.36,3.57,4,3.57h7c2.67,0,4-1.2,4-3.57V34.63c0-2.38-1.55-3.15-4.23-3.69l-5.95-1.18c-1.18-.25-1.86-.64-1.86-1.88V25.46a1.48,1.48,0,0,1,1.66-1.55h5.53a1.47,1.47,0,0,1,1.64,1.55v1.59h2.86V25.32c0-2.37-1.35-3.57-4-3.57h-6.58c-2.67,0-4,1.2-4,3.57v3c0,2.37,1.55,3.15,4.24,3.7l5.94,1.21c1,.2,1.87.5,1.87,1.85v2.7a1.47,1.47,0,0,1-1.64,1.55h-6a1.46,1.46,0,0,1-1.63-1.55V36Z"/></g><g id="_Group_15" data-name="&lt;Group&gt;"><path class="cls-5" d="M285.78,24.43V42h-3.84V24.43h-6.3V21.29h16.43v3.14Z"/><path class="cls-5" d="M286.23,42.44h-4.74V24.88h-6.3v-4h17.34v4h-6.3Zm-3.84-.91h2.93V24h6.3V21.75H276.1V24h6.29Z"/></g><g id="_Group_16" data-name="&lt;Group&gt;"><path class="cls-5" d="M298.26,36.87,296.53,42h-4l7.6-20.7h4.57L312.32,42H308.1l-1.72-5.12Zm4.06-12.07-3,8.91h6Z"/><path class="cls-5" d="M313,42.44h-5.2l-1.73-5.12h-7.46l-1.73,5.12h-5l7.94-21.6H305Zm-4.55-.91h3.24l-7.3-19.78h-3.94l-7.27,19.78h3l1.73-5.11h8.76ZM306,34.16h-7.28l3.64-10.78Zm-6-.9h4.74l-2.37-7Z"/></g><g id="_Group_17" data-name="&lt;Group&gt;"><path class="cls-5" d="M322.83,24.43V42H319V24.43H312.7V21.29h16.42v3.14Z"/><path class="cls-5" d="M323.28,42.44h-4.74V24.88h-6.3v-4h17.34v4h-6.3Zm-3.83-.91h2.92V24h6.3V21.75H313.15V24h6.3Z"/></g><g id="_Group_18" data-name="&lt;Group&gt;"><path class="cls-5" d="M348.1,21.29v3.17H337.2v5.4h9V33h-9v5.86h10.9V42H333.36V21.29Z"/><path class="cls-5" d="M348.55,42.44H332.91V20.84h15.64v4.07h-10.9V29.4h9v4h-9v4.95h10.9Zm-14.73-.91h13.82V39.28H336.75V32.51h9v-2.2h-9V24h10.89V21.75H333.82Z"/></g></g><g id="_Group_19" data-name="&lt;Group&gt;"><g id="_Group_20" data-name="&lt;Group&gt;"><path id="_Compound_Path_3" data-name="&lt;Compound Path&gt;" class="cls-5" d="M377.81,38c0,2.62-1.56,4-4.47,4h-7.45c-2.91,0-4.47-1.41-4.47-4V21.29h3.83V37.76c0,.69.42,1.06,1.22,1.06h6.33c.76,0,1.18-.37,1.18-1.06V21.29h3.83Z"/><path id="_Compound_Path_4" data-name="&lt;Compound Path&gt;" class="cls-5" d="M373.34,42.44h-7.45c-3.17,0-4.92-1.59-4.92-4.48V20.84h4.74V37.76c0,.32.09.61.76.61h6.33c.64,0,.73-.29.73-.61V20.84h4.74V38C378.27,40.85,376.52,42.44,373.34,42.44ZM361.87,21.75V38c0,2.37,1.36,3.57,4,3.57h7.45c2.67,0,4-1.2,4-3.57V21.75h-2.93v16a1.46,1.46,0,0,1-1.63,1.52h-6.33a1.47,1.47,0,0,1-1.67-1.52v-16Z"/></g><g id="_Group_21" data-name="&lt;Group&gt;"><path id="_Compound_Path_5" data-name="&lt;Compound Path&gt;" class="cls-5" d="M400.65,21.29V42h-3.77l-10-15.32V42h-3.58V21.29h4L397,36.21V21.29Z"/><path id="_Compound_Path_6" data-name="&lt;Compound Path&gt;" class="cls-5" d="M401.11,42.44h-4.47L387.36,28.2V42.44h-4.48V20.84h4.72l9,13.84V20.84h4.52Zm-4-.91h3.07V21.75h-2.7v16l-10.39-16h-3.33V41.53h2.68V25.14Z"/></g><g id="_Group_22" data-name="&lt;Group&gt;"><path id="_Compound_Path_7" data-name="&lt;Compound Path&gt;" class="cls-5" d="M406.17,21.29H410V42h-3.84Z"/><path id="_Compound_Path_8" data-name="&lt;Compound Path&gt;" class="cls-5" d="M410.46,42.44h-4.74V20.84h4.74Zm-3.84-.91h2.93V21.75h-2.93Z"/></g><g id="_Group_23" data-name="&lt;Group&gt;"><path id="_Compound_Path_9" data-name="&lt;Compound Path&gt;" class="cls-5" d="M426.46,42H422l-7.19-20.7H419l5.28,16.9,5.3-16.9h4.06Z"/><path id="_Compound_Path_10" data-name="&lt;Compound Path&gt;" class="cls-5" d="M426.78,42.44h-5.09l-7.5-21.6h5.16l4.94,15.83,5-15.83h5Zm-4.44-.91h3.8L433,21.75h-3.09l-5.64,18-5.6-18h-3.22Z"/></g><g id="_Group_24" data-name="&lt;Group&gt;"><path id="_Compound_Path_11" data-name="&lt;Compound Path&gt;" class="cls-5" d="M453.17,21.29v3.17h-10.9v5.4h9V33h-9v5.86h10.9V42H438.43V21.29Z"/><path id="_Compound_Path_12" data-name="&lt;Compound Path&gt;" class="cls-5" d="M453.62,42.44H438V20.84h15.64v4.07h-10.9V29.4h9v4h-9v4.95h10.9Zm-14.73-.91h13.82V39.28h-10.9V32.51h9v-2.2h-9V24h10.9V21.75H438.89Z"/></g><g id="_Group_25" data-name="&lt;Group&gt;"><path id="_Compound_Path_13" data-name="&lt;Compound Path&gt;" class="cls-5" d="M471,42l-4.13-8h-4.53v8h-3.84V21.29H470c2.91,0,4.48,1.41,4.48,4V30a3.66,3.66,0,0,1-3.48,4L475.14,42Zm-1.57-11.07c.77,0,1.18-.37,1.18-1.06V25.49c0-.69-.41-1.06-1.18-1.06h-7.09v6.49Z"/><path id="_Compound_Path_14" data-name="&lt;Compound Path&gt;" class="cls-5" d="M475.89,42.44h-5.18l-4.12-8h-3.81v8H458V20.84H470c3.18,0,4.93,1.59,4.93,4.48V30a4,4,0,0,1-3.25,4.3Zm-4.63-.91h3.14l-4.14-8,.63-.09A3.21,3.21,0,0,0,474,30V25.32c0-2.37-1.36-3.57-4-3.57h-11V41.53h2.93v-8h5.27Zm-1.84-10.15h-7.55V24h7.55a1.47,1.47,0,0,1,1.64,1.52v4.37A1.47,1.47,0,0,1,469.42,31.38Zm-6.64-.91h6.64c.64,0,.73-.3.73-.61V25.49c0-.32-.09-.61-.73-.61h-6.64Z"/></g><g id="_Group_26" data-name="&lt;Group&gt;"><path id="_Compound_Path_15" data-name="&lt;Compound Path&gt;" class="cls-5" d="M491.49,25.46c0-.72-.41-1.09-1.18-1.09h-5.53c-.8,0-1.21.37-1.21,1.09v2.42c0,.91.41,1.2,1.5,1.43L491,30.49c2.72.55,4.61,1.41,4.61,4.14V38c0,2.62-1.57,4-4.48,4h-7c-2.91,0-4.47-1.41-4.47-4V35.55h3.77v2.27c0,.72.41,1.09,1.18,1.09h6c.77,0,1.18-.37,1.18-1.09v-2.7c0-.92-.41-1.18-1.5-1.41l-5.95-1.21c-2.68-.54-4.6-1.41-4.6-4.14v-3c0-2.62,1.57-4,4.48-4h6.58c2.91,0,4.47,1.41,4.47,4V27.5h-3.77Z"/><path id="_Compound_Path_16" data-name="&lt;Compound Path&gt;" class="cls-5" d="M491.14,42.44h-7c-3.18,0-4.93-1.59-4.93-4.48V35.09h4.68v2.73c0,.38.13.64.73.64h6c.6,0,.73-.26.73-.64v-2.7c0-.58-.12-.75-1.14-1L484.24,33c-2.57-.53-5-1.44-5-4.59v-3c0-2.89,1.75-4.48,4.93-4.48h6.58c3.18,0,4.93,1.59,4.93,4.48V28H491v-2.5c0-.38-.12-.64-.73-.64h-5.53c-.7,0-.76.33-.76.64v2.42c0,.56.09.77,1.14,1l5.94,1.18c2.58.51,5,1.43,5,4.58V38C496.07,40.85,494.32,42.44,491.14,42.44Zm-11-6.44v2c0,2.37,1.35,3.57,4,3.57h7c2.67,0,4-1.2,4-3.57V34.63c0-2.38-1.55-3.15-4.24-3.69L485,29.76c-1.18-.25-1.87-.64-1.87-1.88V25.46a1.49,1.49,0,0,1,1.67-1.55h5.53A1.47,1.47,0,0,1,492,25.46v1.59h2.86V25.32c0-2.37-1.35-3.57-4-3.57h-6.58c-2.67,0-4,1.2-4,3.57v3c0,2.37,1.55,3.15,4.24,3.7l5.94,1.21c1,.2,1.86.5,1.86,1.85v2.7a1.46,1.46,0,0,1-1.63,1.55h-6A1.47,1.47,0,0,1,483,37.82V36Z"/></g><g id="_Group_27" data-name="&lt;Group&gt;"><path id="_Compound_Path_17" data-name="&lt;Compound Path&gt;" class="cls-5" d="M501,21.29h3.84V42H501Z"/><path id="_Compound_Path_18" data-name="&lt;Compound Path&gt;" class="cls-5" d="M505.26,42.44h-4.74V20.84h4.74Zm-3.83-.91h2.93V21.75h-2.93Z"/></g><g id="_Group_28" data-name="&lt;Group&gt;"><path id="_Compound_Path_19" data-name="&lt;Compound Path&gt;" class="cls-5" d="M519.12,24.43V42h-3.83V24.43H509V21.29h16.43v3.14Z"/><path id="_Compound_Path_20" data-name="&lt;Compound Path&gt;" class="cls-5" d="M519.58,42.44h-4.75V24.88h-6.29v-4h17.33v4h-6.29Zm-3.84-.91h2.93V24H525V21.75H509.45V24h6.29Z"/></g><g id="_Group_29" data-name="&lt;Group&gt;"><path id="_Compound_Path_21" data-name="&lt;Compound Path&gt;" class="cls-5" d="M535.8,42V34.74l-7.51-13.45h4.15l5.31,9.89,5.3-9.89h4.09l-7.51,13.45V42Z"/><path id="_Compound_Path_22" data-name="&lt;Compound Path&gt;" class="cls-5" d="M540.08,42.44h-4.74V34.86l-7.83-14h5.2l5,9.38,5-9.38h5.14l-7.84,14Zm-3.83-.91h2.93v-6.9l.05-.11,7.14-12.77h-3l-5.57,10.39-5.58-10.39h-3.11l7.19,12.88Z"/></g></g></g></g></g></svg>