<?xml version="1.0" encoding="utf-8"?>
<!-- Generator: Adobe Illustrator 18.1.1, SVG Export Plug-In . SVG Version: 6.00 Build 0)  -->
<svg version="1.1" xmlns="http://www.w3.org/2000/svg" xmlns:xlink="http://www.w3.org/1999/xlink" x="0px" y="0px"
	 viewBox="0 0 320 36" enable-background="new 0 0 320 36" xml:space="preserve">
<g id="Layer_2" display="none">
	<rect display="inline" fill="#1A1A1A" width="320" height="36"/>
</g>
<g id="Layer_1">
	<g>
		<path fill-rule="evenodd" clip-rule="evenodd" fill="#FFFFFF" d="M56.4,10h7v3.8l2.9-3.4c0.7-0.9,2.5-1.1,4.3,0.4l-1,5.4
			c-1-1.4-2.4-2.4-3.7-2.4c-1.2,0-2.4,0.8-2.4,2.7v4.9c0,1.7,0.5,2.3,2.3,2.4v0.6h-9.2l0-0.7c1.8,0,2.3-0.6,2.3-2.4v-8.7
			c0-1.7-0.6-2.1-2.4-2.1V10L56.4,10z"/>
		<path fill-rule="evenodd" clip-rule="evenodd" fill="#FFFFFF" d="M19,20.2c-1.8,2-4.4,4.5-8.5,4.6c-4,0.1-10.5-2.2-10.4-10
			C0.3,7,7.6,5,10.8,4.9c2.5-0.1,5.7,1,6.1,1.1c0.7,0,0.9-0.4,1.1-0.9h0.6l0.1,6.9l-0.7,0.2c-0.4-2-0.9-5.9-5.9-6
			C3.4,6.2,3.4,22,11.7,22.5c1.8,0.1,4.5-0.8,6.7-3.4L19,20.2L19,20.2z"/>
		<path fill-rule="evenodd" clip-rule="evenodd" fill="#FFFFFF" d="M49.4,10c4.6,0,8.3,3.3,8.3,7.4c0,4.1-3.7,7.4-8.3,7.4
			c-4.6,0-8.3-3.3-8.3-7.4C41,13.3,44.8,10,49.4,10L49.4,10z M49.3,11.2c2.3,0,4.1,2.7,4.1,6.1c0,3.4-1.8,6.2-4.1,6.2
			c-2.3,0-4.1-2.8-4.1-6.2C45.2,13.9,47,11.2,49.3,11.2L49.3,11.2z"/>
		<path fill-rule="evenodd" clip-rule="evenodd" fill="#FFFFFF" d="M108.4,10c4.6,0,8.4,3.3,8.4,7.4c0,4.1-3.7,7.4-8.4,7.4
			c-4.6,0-8.3-3.3-8.3-7.4C100.1,13.3,103.8,10,108.4,10L108.4,10z M108.3,11.2c2.3,0,4.1,2.7,4.1,6.1c0,3.4-1.8,6.2-4.1,6.2
			c-2.3,0-4.1-2.8-4.1-6.2C104.2,13.9,106.1,11.2,108.3,11.2L108.3,11.2z"/>
		<path fill-rule="evenodd" clip-rule="evenodd" fill="#FFFFFF" d="M39.9,21.5c0,1.7,0.5,2.2,2.2,2.3v0.6h-9v-0.6
			c1.7,0,2.2-0.6,2.2-2.5V7.5C35.2,6,34.7,5.7,33,5.6V5h6.9V21.5L39.9,21.5z"/>
		<path fill-rule="evenodd" clip-rule="evenodd" fill="#FFFFFF" d="M78,16.9l0,3.4c0,1.5-0.7,2.4-2.2,2.4c-1.6,0-2.3-1.3-2.2-2.5
			c0-0.8,0.5-1.5,1.1-1.8L78,16.9L78,16.9z M70.3,15.3c0.3-3.8,3.6-5.3,6.4-5.3c2.6,0,5.6,1.7,5.6,4.1v7.2c0,1.2,0.6,1.7,1.7,1.2
			c-0.4,1.4-1.8,2.3-2.9,2.4c-1.2,0-2.4-0.6-3-2.2c-1.4,1.4-3,2.1-4.7,2.2c-2.7,0.1-3.9-1.9-3.9-3.5c-0.1-1.7,0.9-3.2,3-3.7l4.8-1.4
			c1.2-0.3,0.9-2.3-0.7-2.9C74.2,12.1,71.9,13.1,70.3,15.3L70.3,15.3z"/>
		<path fill-rule="evenodd" clip-rule="evenodd" fill="#FFFFFF" d="M91.9,5h6.7v16.6c0,1,0.6,1.9,2.1,2.3v0.6h-9.5
			c-5.8,0-7.9-3.2-7.9-7.3c0-3.4,2.6-7.2,6.7-7.2c1.5,0,3.1,0.4,4.2,1.5l0-4.1c0-1.9-0.5-1.8-2.3-2V5L91.9,5z M91.3,11.4
			c1.6,0,2.9,0.6,2.9,2.6v7.9c0,0.7-0.6,1.5-1.6,1.5c-2.8-0.1-4.8-3.2-4.9-6.3C87.6,14.8,88.7,11.5,91.3,11.4L91.3,11.4z"/>
		<path fill-rule="evenodd" clip-rule="evenodd" fill="#FFFFFF" d="M26,10c4.6,0,8.3,3.3,8.3,7.4c0,4.1-3.7,7.4-8.3,7.4
			c-4.6,0-8.4-3.3-8.4-7.4C17.7,13.3,21.4,10,26,10L26,10z M26,11.2c2.3,0,4.1,2.7,4.1,6.1c0,3.4-1.8,6.2-4.1,6.2
			c-2.3,0-4.1-2.8-4.1-6.2C21.8,13.9,23.7,11.2,26,11.2L26,11.2z"/>
		<path fill="#FFFFFF" d="M292.3,9.9v11.5c0,2,0.8,2.3,2.4,2.4v0.6h-9v-0.6c0.9-0.1,1.4-0.2,1.8-0.5c0.5-0.5,0.5-1.2,0.5-2.1v-7.5
			c0-0.9,0.1-2.1-0.3-2.5c-0.3-0.3-0.6-0.7-2.2-0.7V9.9L292.3,9.9z M287.5,3.7c0-3.1,5.1-3.1,5.1,0C292.6,6.8,287.5,6.8,287.5,3.7"
			/>
		<path fill-rule="evenodd" clip-rule="evenodd" fill="#FFFFFF" d="M260.5,10h7v3.8l2.9-3.4c0.7-0.9,2.5-1.1,4.3,0.4l-1,5.4
			c-1-1.4-2.4-2.4-3.7-2.4c-1.2,0-2.4,0.8-2.4,2.7v4.9c0,1.7,0.5,2.3,2.3,2.4v0.6h-9.2l0-0.7c1.8,0,2.3-0.6,2.3-2.4v-8.7
			c0-1.7-0.7-2.1-2.4-2.1V10L260.5,10z"/>
		<path fill-rule="evenodd" clip-rule="evenodd" fill="#FFFFFF" d="M246.5,17.8c-0.2-5.1,3.5-7.8,8.2-7.9c4.3-0.1,6.2,2.6,6.5,6.3
			h-10c-0.1,3.2,1.9,6.2,4.3,6.3c1.9,0.1,3.6-0.1,5.9-3.3l0.5,0.5c-0.8,2.5-3.1,4.9-7.4,4.9C251.4,24.7,246.7,22.7,246.5,17.8
			L246.5,17.8z M251.4,14.9h5.2c0.1-2-1.1-3.6-2.4-3.6C252.9,11.2,251.6,12.7,251.4,14.9L251.4,14.9z"/>
		<path fill="#FFFFFF" d="M212.8,9.9v3.4h0.1c1.3-2.3,3.1-3.4,5.3-3.4c1.4,0,2.5,0.5,3.4,1.4c0.9,0.9,1.4,2.1,1.4,3.7v6.1
			c0,0.9,0.1,1.8,0.6,2.2c0.4,0.3,0.6,0.4,1.6,0.5v0.6h-8.5v-0.6c0.7,0,1.2-0.1,1.6-0.5c0.4-0.4,0.5-1.2,0.5-2v-5.8
			c0-1-0.2-1.9-0.7-2.4c-0.4-0.6-1.1-0.9-1.9-0.9c-1.4,0-2.6,0.8-3.5,2.4v6.5c0,1.1,0.1,1.7,0.7,2.3c0.3,0.3,0.6,0.4,1.4,0.5v0.5
			h-8.4v-0.6c0.4,0,1-0.1,1.4-0.4c0.6-0.5,0.6-1.3,0.6-2v-7.8c0-1.8-0.1-2.2-0.4-2.6c-0.4-0.4-0.9-0.5-1.8-0.5V9.9h6H212.8z"/>
		<path fill="#FFFFFF" d="M230.9,10v11.5c-0.1,2,0.8,2.3,2.4,2.4v0.6h-9v-0.6c0.9-0.1,1.4-0.2,1.8-0.5c0.5-0.5,0.5-1.2,0.5-2.1v-7.5
			c0-0.9,0.1-2.1-0.3-2.5c-0.3-0.3-0.6-0.7-2.2-0.7V10L230.9,10z M226.1,3.7c0-3.1,5.1-3.1,5.1,0C231.2,6.9,226.1,6.8,226.1,3.7"/>
		<path fill="#FFFFFF" d="M248.7,10v0.6c-0.7,0.1-1.3,0.3-1.8,0.8c-0.5,0.5-1,1.3-1.6,2.4l-5.1,10.6h-0.8L234,13.6
			c-0.6-1.1-1.1-1.9-1.6-2.3c-0.5-0.4-1.1-0.6-1.9-0.7V10h8.9v0.6c-0.9,0.2-1.4,0.6-1.4,1.3c0,0.3,0.1,0.6,0.3,0.9l3.3,6.4l2.5-5.1
			c0.4-0.8,0.6-1.4,0.6-2c0-0.9-0.6-1.5-1.8-1.5V10H248.7z"/>
		<path fill="#FFFFFF" d="M274.8,23.9v-4.5h0.7c1.4,2.9,3.2,4.3,5.3,4.3c0.7,0,1.3-0.2,1.8-0.6c0.5-0.4,0.8-0.9,0.8-1.4
			c0-0.6-0.2-1.1-0.7-1.5c-0.5-0.4-1.5-0.9-3-1.5c-2-0.7-3.3-1.4-3.9-2.1c-0.6-0.7-0.9-1.5-0.9-2.5c0-1.2,0.5-2.2,1.4-3
			c0.9-0.8,2.2-1.2,3.7-1.2c0,0,3.6,0.1,5.4,1v3.3h-0.7c-0.4-1-1.1-1.8-1.8-2.4c-0.8-0.6-1.7-0.9-2.6-0.9c-0.7,0-1.3,0.1-1.7,0.4
			c-0.5,0.3-0.7,0.6-0.7,1.1c0,0.4,0.2,0.8,0.6,1.1c0.4,0.3,1.3,0.7,2.6,1.2c2.1,0.7,3.5,1.5,4.2,2.3c0.7,0.8,1.1,1.7,1.1,2.9
			c0,1.3-0.5,2.4-1.6,3.3c-1.1,0.9-2.3,1.4-3.6,1.4C280.9,24.7,278,24.8,274.8,23.9"/>
		<path fill="#FFFFFF" d="M200.7,24.4v-2.6c-1.2,1.2-2.2,2-3.1,2.4c-0.9,0.4-1.9,0.7-3.1,0.7c-2,0-3.6-0.6-4.8-1.8
			c-1.2-1.2-1.7-2.7-1.7-4.7V8.3c0-0.9,0.1-1.7-0.4-2.2c-0.3-0.4-1.1-0.5-1.8-0.5l0-0.6h6.6l0,14.3c0,1.2,0.3,2.1,1,2.8
			c0.6,0.7,1.5,1,2.6,1c1.6,0,3-0.9,4.7-2.7V8.3c0-1.8-0.1-1.9-0.5-2.3c-0.3-0.3-1.2-0.5-1.8-0.5V5h6.4l0,16.1
			c0,1.3,0.1,1.8,0.5,2.2c0.3,0.3,0.9,0.5,1.9,0.5v0.6H200.7z"/>
		<path fill-rule="evenodd" clip-rule="evenodd" fill="#FFFFFF" d="M167.3,17.8c-0.2-5.1,3.5-7.8,8.2-7.9c4.3-0.1,6.2,2.6,6.5,6.3
			h-10c-0.1,3.2,1.9,6.2,4.3,6.3c1.9,0.1,3.6-0.1,5.9-3.3l0.5,0.5c-0.8,2.5-3.1,4.9-7.4,4.9C172.1,24.7,167.4,22.7,167.3,17.8
			L167.3,17.8z M172.2,14.9h5.2c0.1-2-1.1-3.6-2.4-3.6C173.7,11.2,172.3,12.7,172.2,14.9L172.2,14.9z"/>
		<path fill-rule="evenodd" clip-rule="evenodd" fill="#FFFFFF" d="M163.6,3.2l0.6,0.2l0,6.5l4.4,0l0,1.4l-4.4,0l0,8.1
			c0,3,2.3,3.5,4.1,1.4c0-0.2,0.5,0.6,0.5,0.5c-1.4,2.7-3.9,4-6.7,2.9c-1.4-0.6-2.7-1.9-2.7-4.2v-8.7h-1.9l0-1.4
			C160.5,9.2,163,7.4,163.6,3.2L163.6,3.2z"/>
		<path fill-rule="evenodd" clip-rule="evenodd" fill="#FFFFFF" d="M135.6,3.5l0,6.4c3.2-1.3,4.3-2.6,5.1-6.6l0.6,0.2l0,6.5h4.4
			l0,1.5h-4.4l0,7.8c0,2.4,1.2,3.8,3.9,2.4l0.4,0.9c-1.1,1.9-3.5,2.4-5.1,2.3c-2.6-0.2-3.8-2.2-3.8-5.1v-8.3l-1.7,0
			c-0.1-4.2-2.2-7.9-5.3-7.8c-1.5,0-4.1,1.2-4.2,3.7c-0.1,1.1,0.3,1.8,1.3,2.7l6.7,5.3c1.6,1.3,3.5,4.8,2.4,8.5
			c-0.9,3-4.8,4.8-7.8,4.9c-3.2,0.1-6.4-1.7-8-4.8l0.8-0.4c1.2,1.9,4,3.7,6.8,3.1c3.1-0.7,4.5-5.4,1.3-8.1l-5.8-4.7
			c-3.9-3.2-2.7-8.6,1.6-10.4C126.5,2.4,131.1,1.7,135.6,3.5L135.6,3.5z"/>
		<path fill-rule="evenodd" clip-rule="evenodd" fill="#FFFFFF" d="M153,17l0,3.4c0,1.5-0.7,2.3-2.1,2.3c-1.6,0-2.3-1.3-2.2-2.5
			c0-0.8,0.4-1.5,1.1-1.8L153,17L153,17z M145.5,15.3c0.3-3.8,3.5-5.4,6.3-5.4c2.5,0,5.4,1.7,5.4,4.1v7.2c0,1.2,0.6,1.7,1.7,1.2
			c-0.4,1.4-1.8,2.3-2.9,2.3c-1.2,0-2.3-0.6-2.9-2.2c-1.4,1.4-2.9,2.1-4.6,2.2c-2.6,0.1-3.8-1.9-3.8-3.6c-0.1-1.7,0.9-3.1,2.9-3.7
			l4.7-1.4c1.2-0.4,0.8-2.3-0.7-2.9C149.2,12.1,147,13.1,145.5,15.3L145.5,15.3z"/>
		<path fill-rule="evenodd" clip-rule="evenodd" fill="#FFFFFF" d="M298.8,3.2l0.6,0.2l0,6.5l4.4,0l0,1.5l-4.4,0l0,8.1
			c0,3,2.3,3.5,4.1,1.4c0-0.2,0.5,0.6,0.5,0.5c-1.4,2.8-3.9,4-6.7,2.9c-1.4-0.6-2.8-1.9-2.8-4.2v-8.7h-1.9l0-1.4
			C295.9,9.5,298.2,7.3,298.8,3.2L298.8,3.2z"/>
		<path fill="#FFFFFF" d="M313.7,10v0.7c1.3,0.2,1.9,0.9,1.9,1.9c0,0.7-0.3,1.6-0.8,2.9l-2.1,4.8l-3.3-6.5c-0.4-0.8-0.6-1.5-0.6-1.9
			c0-0.6,0.5-1,1.5-1.1V10h-9.6v0.7c1,0.2,1.7,0.5,2.2,0.9c0.5,0.4,1,1.2,1.6,2.4l5.8,11.6c-0.7,1.5-1.4,2.7-2.1,3.4
			c-1,1-2.1,1.5-3.5,1.5c-0.7,0-1.4-0.1-2.1-0.4l-1,4.5c0.4,0.1,0.8,0.1,1.3,0.1c1.6,0,2.9-0.4,3.9-1.1c1-0.7,1.9-2,2.7-3.8l7-15.3
			c0.6-1.4,1.2-2.3,1.6-2.8c0.4-0.4,1.1-0.8,2.1-1V10H313.7z"/>
	</g>
</g>
</svg>
