<svg id="Layer_1" data-name="Layer 1" xmlns="http://www.w3.org/2000/svg" viewBox="0 0 709 709"><defs><style>.cls-1{fill:#fff;}.cls-2{fill:none;}</style></defs><title>ramhead</title><path class="cls-1" d="M354.56,3.76C164.54,3.76,7.42,160.89,7.42,350.9S164.54,698,354.56,698,701.69,540.91,701.69,350.9,544.57,3.76,354.56,3.76ZM573.8,592.07c-11,3.65-21.92,7.31-32.89,0-7.31-3.65-14.61-11-14.61-21.92-3.66-14.62,7.3-29.24,11-40.2,11-14.62,29.23-43.85,54.81-62.12,36.54-25.58,58.46-32.89,51.16-40.19-7.31-3.66-40.2,14.61-47.51,18.27-36.54,18.27-87.69,73.08-95,116.93-3.66,32.88,32.88,54.81,58.46,47.5-84,69.43-175.39,73.08-204.62,73.08h0c-32.89,0-124.24-3.65-204.63-73.08,25.58,7.31,62.12-14.62,58.46-47.5-7.31-40.2-58.46-95-95-116.93-7.31-3.66-40.2-21.93-47.51-18.27-7.3,7.3,14.62,14.61,51.16,40.19,25.58,18.27,43.85,43.85,54.81,62.12,7.31,11,14.62,25.58,14.62,40.2,0,11-7.31,18.27-14.62,21.92a50.73,50.73,0,0,1-32.88,0c-18.27-7.31-29.24-18.27-40.2-32.89C76.85,530,54.92,497.06,44,460.52c11,21.93,69.43,106,95,109.63,25.57,0-25.58-69.43-62.12-98.66-7.31-7.31-18.27-14.62-21.93-29.24,0-11,3.66-14.61,14.62-18.27,14.61,0,51.16,18.27,51.16,18.27-65.78-116.93,36.54-179-7.31-204.62-14.62-11-43.85,0-62.12,3.65,153.47-91.35,182.7,0,230.2,40.19,7.31,7.31,40.2,0,47.51-7.3,7.31-11,25.58-47.51,7.31-69.43-25.58-32.89-138.86-135.2-241.17-47.5C146.27,76.85,259.55,18.38,361.86,22c102.32-3.66,215.59,54.81,266.75,135.2-102.31-87.7-215.59,11-241.17,47.5-18.27,21.92-3.65,58.46,7.31,69.43,7.31,7.3,40.2,14.61,47.5,7.3,47.51-40.19,73.09-131.54,230.21-40.19-18.27-3.65-47.5-11-62.12-3.65-40.19,25.57,58.47,84-7.31,204.62,0,0,40.2-18.27,51.16-18.27s14.62,7.31,14.62,18.27c-3.66,14.62-11,21.93-21.93,29.24-36.54,29.23-87.7,102.31-62.12,98.66,25.58,0,84-87.7,95-109.63-11,36.54-32.89,69.43-54.81,98.66C603,573.8,588.42,584.76,573.8,592.07Zm-182.7-40.2c-11,0-25.58,3.66-36.54,3.66S329,551.87,318,551.87h-3.65c-7.31,14.62,36.54,25.58,40.2,25.58,7.3,0,47.5-7.3,36.54-25.58C394.75,555.53,394.75,551.87,391.1,551.87Zm-36.54-135.2h0c-11,0-18.27,11-29.24,21.93-18.27,21.92-58.46,73.08-29.23,98.66,11,11,29.23,18.27,51.16,11,7.31-3.65,3.65-14.61,0-21.92-11-14.62-25.58-7.31-32.89-14.62-3.65-7.31,0-11,0-14.62,3.65-3.65,11-3.65,14.62-3.65,11,3.65,14.61,7.31,21.92,11h0c7.31-7.31,11-11,21.93-11,3.65,0,11-3.65,14.61,3.65,3.66,3.66,7.31,7.31,0,14.62-3.65,7.31-21.92,0-32.88,14.62-3.66,3.65-7.31,18.27,0,21.92,21.92,7.31,40.19,0,51.15-11,29.23-25.58-11-76.74-29.23-98.66C372.83,427.64,365.52,416.67,354.56,416.67ZM599.38,329c0-14.62-14.62-18.27-25.58-21.93-32.89-11-47.5,3.66-54.81,3.66,11-11,7.31-32.89-7.31-32.89-25.58-3.65-18.27,21.92-11,36.54,3.65,7.31,7.31,21.93,21.92,18.27,14.62,0,14.62-14.62,36.54-14.62,0,0,25.58,3.66,25.58,11,0,14.61-14.61,18.27-25.58,21.92-14.61,3.66-29.23-3.65-40.19,11-3.66,3.66-7.31,11-3.66,14.62,0,3.65,0,3.65,18.28,3.65-7.31,11-14.62,25.58-14.62,40.2,0,36.54-11,65.77-7.31,80.39C530,478.79,530,445.91,533.61,420.33c0-14.62,7.3-29.23,14.61-40.2s21.93-11,32.89-18.27C584.76,350.9,599.38,339.94,599.38,329Zm-398.3-51.16c-14.61,3.65-14.61,21.92-7.3,32.89-11,0-21.93-14.62-54.81-3.66-11,3.66-25.58,7.31-25.58,21.93,0,11,14.61,21.92,21.92,29.23,11,7.31,25.58,7.31,32.89,18.27s11,25.58,14.61,40.19c3.66,25.58,3.66,58.47,21.93,80.39,3.65-14.61-7.31-40.19-7.31-80.39,0-14.61-7.31-29.23-14.62-40.19,14.62,0,14.62,0,18.28-3.65,0-3.66,0-11-3.66-14.62-11-11-25.58-7.31-40.19-11-11-3.66-21.93-7.31-25.58-21.93,0-7.31,25.58-11,25.58-11,21.92,0,18.27,14.62,32.88,14.62,11,0,18.27-11,21.93-18.27C219.36,299.74,223,274.17,201.08,277.82Zm95,160.78c11-14.62,21.92-51.16,14.62-65.77a56.87,56.87,0,0,1-29.24-21.93c-7.3-11-11-21.92-25.57-25.58-7.31-3.65-18.27,0-25.58,3.66-11,7.3-14.62,21.92-14.62,32.88,0,25.58,3.66,62.12,14.62,84.05A378.25,378.25,0,0,0,270.51,519C266.86,478.79,292.44,449.56,296.09,438.6ZM263.2,383.79c-3.65-7.31-18.27-7.31-21.92-11-11-7.31-11-18.28,0-29.24s40.19,21.93,36.54,51.16C270.51,394.75,270.51,394.75,263.2,383.79ZM475.14,329c-7.31-3.66-14.62-3.66-25.58-3.66-11,3.66-18.27,14.62-25.58,25.58a56.85,56.85,0,0,1-29.23,21.93c-7.31,14.61,3.65,47.5,14.62,65.77,7.3,11,29.23,40.19,25.58,84a378.25,378.25,0,0,0,40.19-73.08c11-21.92,14.62-62.12,14.62-84C489.76,350.9,486.1,336.29,475.14,329Zm-7.31,43.85c-7.31,3.65-18.27,0-21.92,11-7.31,11-7.31,14.61-11,11-7.3-25.58,21.93-62.12,36.55-51.16C478.79,350.9,478.79,365.52,467.83,372.83Z"/><path class="cls-1" d="M354.56,709C157.24,709,.11,548.22.11,354.56.11,157.24,160.89.11,354.56.11S709,160.89,709,354.56,551.88,709,354.56,709Zm0-701.58c-190,0-343.49,153.47-343.49,343.48S164.54,694.38,354.56,694.38,698,540.91,698,350.9C698,164.54,544.57,7.42,354.56,7.42Z"/><rect id="_Slice_" data-name="&lt;Slice&gt;" class="cls-2" width="709" height="709"/></svg>